<?xml version="1.0" encoding="iso-8859-1"?>
<!-- Generator: Adobe Illustrator 16.0.0, SVG Export Plug-In . SVG Version: 6.00 Build 0)  -->
<!DOCTYPE svg PUBLIC "-//W3C//DTD SVG 1.1//EN" "http://www.w3.org/Graphics/SVG/1.1/DTD/svg11.dtd">
<svg xmlns="http://www.w3.org/2000/svg" xmlns:xlink="http://www.w3.org/1999/xlink" version="1.1" id="Capa_1" x="0px" y="0px" width="512px" height="512px" viewBox="0 0 371 371" style="enable-background:new 0 0 371 371;" xml:space="preserve">
<g>
	<path d="M287.043,3.788H83.85L0.505,4.752L0,86.132v198.734c0,45.406,37.655,82.346,83.957,82.346h203.086   c46.291,0,83.957-36.938,83.957-82.346V86.133C371,40.726,333.332,3.788,287.043,3.788z M353.953,284.867   c0,36.021-30.008,65.312-66.91,65.312H97.048l16.375-42.138h78.841c2.998,13.388,14.963,23.435,29.256,23.435   c16.553,0,30.031-13.479,30.031-30.021c0-16.586-13.48-30.066-30.031-30.066c-14.822,0-27.068,10.801-29.539,24.916h-86.58   l-20.504,52.844l2.658,1.032h-3.6c-36.902,0-66.924-29.29-66.924-65.312v-29.764H276.42c3.717,12.354,15.07,21.436,28.621,21.436   c16.574,0,30.031-13.48,30.031-30.066c0-16.541-13.457-30.021-30.031-30.021c-15.506,0-28.162,11.833-29.727,26.938H17.031v-48.938   h168.75c3.715,12.375,15.067,21.436,28.622,21.436c16.562,0,30.045-13.48,30.045-30.047c0-16.562-13.482-30.044-30.045-30.044   c-15.506,0-28.15,11.834-29.729,26.938H17.031v-49.83H175.03l11.986-43.479c0.871,0.07,1.721,0.259,2.623,0.259   c16.562,0,30.045-13.481,30.045-30.045s-13.479-30.021-30.045-30.021c-16.562,0-30.042,13.457-30.042,30.021   c0,11.553,6.61,21.457,16.163,26.492l-9.659,35.055H17.031V86.18l0.389-64.605l66.535-0.753h203.088   c36.9,0,66.908,29.292,66.908,65.312L353.953,284.867L353.953,284.867z M203.18,301.453c0-10.116,8.225-18.327,18.34-18.327   c10.096,0,18.314,8.211,18.314,18.327c0,10.069-8.221,18.305-18.314,18.305C211.402,319.758,203.18,311.522,203.18,301.453z    M286.713,246.472c0-10.095,8.234-18.305,18.328-18.305c10.092,0,18.314,8.21,18.314,18.305c0,10.116-8.225,18.326-18.314,18.326   C294.947,264.798,286.713,256.588,286.713,246.472z M196.074,185.841c0-10.116,8.223-18.304,18.328-18.304   c10.094,0,18.312,8.188,18.312,18.304c0,10.117-8.223,18.307-18.312,18.307C204.297,204.146,196.074,195.958,196.074,185.841z    M171.324,59.641c0-10.093,8.21-18.304,18.314-18.304c10.082,0,18.314,8.211,18.314,18.304c0,10.117-8.232,18.306-18.314,18.306   C179.535,77.946,171.324,69.758,171.324,59.641z" fill="#FFFFFF"/>
</g>
<g>
</g>
<g>
</g>
<g>
</g>
<g>
</g>
<g>
</g>
<g>
</g>
<g>
</g>
<g>
</g>
<g>
</g>
<g>
</g>
<g>
</g>
<g>
</g>
<g>
</g>
<g>
</g>
<g>
</g>
</svg>
