<?xml version="1.0" encoding="iso-8859-1"?>
<!-- Generator: Adobe Illustrator 16.0.0, SVG Export Plug-In . SVG Version: 6.00 Build 0)  -->
<!DOCTYPE svg PUBLIC "-//W3C//DTD SVG 1.1//EN" "http://www.w3.org/Graphics/SVG/1.1/DTD/svg11.dtd">
<svg xmlns="http://www.w3.org/2000/svg" xmlns:xlink="http://www.w3.org/1999/xlink" version="1.1" id="Capa_1" x="0px" y="0px" width="512px" height="512px" viewBox="0 0 33.246 33.246" style="enable-background:new 0 0 33.246 33.246;" xml:space="preserve">
<g>
	<g>
		<path d="M31.912,27.721v-12.33c0-0.22-0.145-0.414-0.354-0.478l-5.709-1.75c0-0.013,0.004-0.024,0.004-0.037    c0-1.011-0.82-1.833-1.832-1.833c-0.621,0-1.168,0.312-1.5,0.784V2.438c0-0.276-0.225-0.5-0.5-0.5H12.63    c-0.133,0-0.26,0.053-0.354,0.146c-0.094,0.093-0.146,0.221-0.146,0.354l0.001,5.283c-0.768,0.219-1.334,0.918-1.334,1.755    c0,0.311,0.085,0.599,0.222,0.855L4.952,6.864C4.798,6.775,4.607,6.775,4.453,6.865c-0.154,0.09-0.249,0.254-0.249,0.433v5.056    c-0.739,0.237-1.278,0.922-1.278,1.738c0,0.933,0.702,1.696,1.604,1.81l-3.003,2.325c-0.123,0.096-0.194,0.24-0.194,0.396v9.098    C0.565,27.94,0,28.64,0,29.476c0,1.011,0.822,1.833,1.834,1.833c1.011,0,1.833-0.822,1.833-1.833c0-0.837-0.566-1.537-1.334-1.756    v-8.853l4.852-3.756L7.186,27.72c-0.768,0.219-1.334,0.918-1.334,1.755c0,1.011,0.822,1.833,1.834,1.833    c1.011,0,1.833-0.822,1.833-1.833c0-0.836-0.566-1.536-1.333-1.755L8.185,14.091c0-0.191-0.108-0.365-0.28-0.449    C7.737,13.559,7.53,13.58,7.38,13.696l-0.81,0.627c0.01-0.077,0.023-0.152,0.023-0.231c0-0.857-0.593-1.573-1.389-1.773v-4.16    l6.927,3.958l0.001,15.603c-0.768,0.219-1.334,0.918-1.334,1.755c0,1.011,0.822,1.833,1.834,1.833    c1.011,0,1.833-0.822,1.833-1.833c0-0.836-0.566-1.536-1.333-1.755l-0.001-15.893c0-0.179-0.096-0.345-0.252-0.434l-0.163-0.093    c0.972-0.045,1.749-0.842,1.749-1.825c0-0.836-0.566-1.536-1.333-1.755l-0.001-4.783h8.39V27.72    c-0.768,0.219-1.334,0.918-1.334,1.755c0,1.011,0.822,1.833,1.834,1.833s1.834-0.822,1.834-1.833c0-0.836-0.566-1.536-1.334-1.755    V14.174c0.332,0.473,0.879,0.784,1.5,0.784c0.646,0,1.211-0.336,1.537-0.84l5.354,1.641v11.96    c-0.768,0.219-1.334,0.918-1.334,1.755c0,1.011,0.822,1.833,1.834,1.833s1.834-0.822,1.834-1.833    C33.246,28.64,32.679,27.939,31.912,27.721z M2.667,29.476c0,0.459-0.374,0.833-0.833,0.833C1.374,30.309,1,29.935,1,29.476    s0.374-0.833,0.834-0.833C2.293,28.643,2.667,29.017,2.667,29.476z M7.686,28.643c0.459,0,0.833,0.374,0.833,0.833    s-0.374,0.833-0.833,0.833c-0.46,0-0.834-0.374-0.834-0.833S7.226,28.643,7.686,28.643z M5.593,14.092    c0,0.459-0.374,0.833-0.833,0.833c-0.46,0-0.834-0.374-0.834-0.833S4.3,13.259,4.76,13.259    C5.219,13.258,5.593,13.632,5.593,14.092z M13.465,29.476c0,0.459-0.374,0.833-0.833,0.833c-0.46,0-0.834-0.374-0.834-0.833    s0.374-0.833,0.834-0.833C13.091,28.643,13.465,29.017,13.465,29.476z M13.465,9.476c0,0.459-0.374,0.833-0.833,0.833    c-0.46,0-0.834-0.374-0.834-0.833s0.374-0.833,0.834-0.833C13.091,8.643,13.465,9.017,13.465,9.476z M22.853,29.476    c0,0.459-0.373,0.833-0.832,0.833c-0.461,0-0.834-0.374-0.834-0.833s0.373-0.833,0.834-0.833    C22.48,28.643,22.853,29.017,22.853,29.476z M24.021,13.958c-0.461,0-0.834-0.374-0.834-0.833s0.373-0.833,0.834-0.833    c0.459,0,0.832,0.374,0.832,0.833S24.48,13.958,24.021,13.958z M31.412,30.31c-0.459,0-0.834-0.374-0.834-0.833    s0.375-0.833,0.834-0.833s0.834,0.374,0.834,0.833S31.871,30.31,31.412,30.31z" fill="#FFFFFF"/>
		<rect x="14.917" y="4.249" width="1.833" height="1.833" fill="#FFFFFF"/>
		<rect x="14.917" y="7.082" width="1.833" height="1.833" fill="#FFFFFF"/>
		<rect x="14.917" y="9.915" width="1.833" height="1.833" fill="#FFFFFF"/>
		<rect x="14.917" y="12.748" width="1.833" height="1.833" fill="#FFFFFF"/>
		<rect x="14.917" y="15.581" width="1.833" height="1.833" fill="#FFFFFF"/>
		<rect x="14.917" y="18.414" width="1.833" height="1.832" fill="#FFFFFF"/>
		<rect x="14.917" y="21.246" width="1.833" height="1.834" fill="#FFFFFF"/>
		<rect x="14.917" y="24.08" width="1.833" height="1.832" fill="#FFFFFF"/>
		<rect x="14.917" y="26.912" width="1.833" height="1.834" fill="#FFFFFF"/>
		<rect x="17.75" y="4.249" width="1.834" height="1.833" fill="#FFFFFF"/>
		<rect x="17.75" y="7.082" width="1.834" height="1.833" fill="#FFFFFF"/>
		<rect x="17.75" y="9.915" width="1.834" height="1.833" fill="#FFFFFF"/>
		<rect x="17.75" y="12.748" width="1.834" height="1.833" fill="#FFFFFF"/>
		<rect x="17.75" y="15.581" width="1.834" height="1.833" fill="#FFFFFF"/>
		<rect x="17.75" y="18.414" width="1.834" height="1.832" fill="#FFFFFF"/>
		<rect x="17.75" y="21.246" width="1.834" height="1.834" fill="#FFFFFF"/>
		<rect x="17.75" y="24.08" width="1.834" height="1.832" fill="#FFFFFF"/>
		<rect x="17.75" y="26.912" width="1.834" height="1.834" fill="#FFFFFF"/>
		<rect x="24.417" y="15.581" width="1.832" height="1.833" fill="#FFFFFF"/>
		<rect x="24.417" y="18.414" width="1.832" height="1.832" fill="#FFFFFF"/>
		<rect x="24.417" y="21.246" width="1.832" height="1.834" fill="#FFFFFF"/>
		<rect x="24.417" y="24.08" width="1.832" height="1.832" fill="#FFFFFF"/>
		<rect x="24.417" y="26.912" width="1.832" height="1.834" fill="#FFFFFF"/>
		<rect x="27.25" y="15.581" width="1.834" height="1.833" fill="#FFFFFF"/>
		<rect x="27.25" y="18.414" width="1.834" height="1.832" fill="#FFFFFF"/>
		<rect x="27.25" y="21.246" width="1.834" height="1.834" fill="#FFFFFF"/>
		<rect x="27.25" y="24.08" width="1.834" height="1.832" fill="#FFFFFF"/>
		<rect x="27.25" y="26.912" width="1.834" height="1.834" fill="#FFFFFF"/>
		<rect x="9.292" y="12.748" width="1.833" height="1.833" fill="#FFFFFF"/>
		<rect x="9.292" y="15.581" width="1.833" height="1.833" fill="#FFFFFF"/>
		<rect x="9.292" y="18.414" width="1.833" height="1.832" fill="#FFFFFF"/>
		<rect x="9.292" y="21.246" width="1.833" height="1.834" fill="#FFFFFF"/>
		<rect x="9.292" y="24.08" width="1.833" height="1.832" fill="#FFFFFF"/>
		<rect x="4.292" y="18.414" width="1.833" height="1.832" fill="#FFFFFF"/>
		<rect x="4.292" y="21.246" width="1.833" height="1.834" fill="#FFFFFF"/>
		<rect x="4.292" y="24.08" width="1.833" height="1.832" fill="#FFFFFF"/>
	</g>
</g>
<g>
</g>
<g>
</g>
<g>
</g>
<g>
</g>
<g>
</g>
<g>
</g>
<g>
</g>
<g>
</g>
<g>
</g>
<g>
</g>
<g>
</g>
<g>
</g>
<g>
</g>
<g>
</g>
<g>
</g>
</svg>
